<svg width="48" height="48" viewBox="0 0 48 48" fill="none" xmlns="http://www.w3.org/2000/svg">
<rect width="48" height="48" rx="24" fill="#437EF7"/>
<path fill-rule="evenodd" clip-rule="evenodd" d="M28.1392 9.98634C28.467 9.32691 29.2672 9.05799 29.9266 9.3857C33.4611 11.1422 36.1067 14.4213 37.0029 18.3706C37.1658 19.0888 36.7157 19.803 35.9976 19.966C35.2795 20.1289 34.5652 19.6789 34.4023 18.9607C33.6868 15.8075 31.5707 13.1805 28.7399 11.7737C28.0804 11.446 27.8115 10.6458 28.1392 9.98634Z" fill="white"/>
<path d="M24 11.9991C18.8604 11.9991 14.6218 15.988 14.6218 21.3325V25.5448C14.6218 26.0507 14.5429 26.5527 14.3887 27.0313L13.4041 30.0866C13.1192 30.9705 13.7392 31.999 14.7916 31.999H33.1509C34.1455 31.999 34.8515 31.0297 34.5464 30.0831L33.5551 27.0069C33.4058 26.5438 33.3298 26.0602 33.3298 25.5736V21.3325C33.3298 16.1671 29.1668 11.9991 24 11.9991Z" fill="white"/>
<path d="M19.6224 34.3301C20.8293 35.3758 22.3489 35.999 23.9999 35.999C25.6509 35.999 27.1705 35.3758 28.3774 34.3301C28.7994 33.9645 28.508 33.3324 27.9496 33.3324H20.0502C19.4918 33.3324 19.2004 33.9645 19.6224 34.3301Z" fill="white"/>
</svg>
