<svg width="48" height="48" viewBox="0 0 48 48" fill="none" xmlns="http://www.w3.org/2000/svg">
<rect width="48" height="48" rx="24" fill="#437EF7"/>
<path d="M21.3334 15.9987C21.3334 14.5259 22.5273 13.332 24.0001 13.332C25.4728 13.332 26.6667 14.5259 26.6667 15.9987V31.9987C26.6667 33.4715 25.4728 34.6654 24.0001 34.6654C22.5273 34.6654 21.3334 33.4715 21.3334 31.9987V15.9987Z" fill="white"/>
<path d="M10.6667 26.6654C10.6667 25.1926 11.8607 23.9987 13.3334 23.9987C14.8062 23.9987 16.0001 25.1926 16.0001 26.6654V31.9987C16.0001 33.4715 14.8062 34.6654 13.3334 34.6654C11.8607 34.6654 10.6667 33.4715 10.6667 31.9987V26.6654Z" fill="white"/>
<path d="M34.6667 18.6654C33.194 18.6654 32.0001 19.8593 32.0001 21.332V31.9987C32.0001 33.4715 33.194 34.6654 34.6667 34.6654C36.1395 34.6654 37.3334 33.4715 37.3334 31.9987V21.332C37.3334 19.8593 36.1395 18.6654 34.6667 18.6654Z" fill="white"/>
</svg>
