<svg width="48" height="48" viewBox="0 0 48 48" fill="none" xmlns="http://www.w3.org/2000/svg">
<rect width="48" height="48" rx="24" fill="#437EF7"/>
<path d="M33.0666 14.668H14.9333C13.4398 14.668 12.6931 14.668 12.1227 14.9586C11.6209 15.2143 11.2129 15.6222 10.9573 16.124C10.6666 16.6944 10.6666 17.4412 10.6666 18.9346V34.2754C10.6666 34.8469 10.6666 35.1326 10.787 35.3047C10.8921 35.455 11.0544 35.5553 11.2359 35.5821C11.4436 35.6128 11.6992 35.485 12.2103 35.2295L15.0991 33.7851C15.4351 33.6171 15.6031 33.5331 15.7791 33.4739C15.9355 33.4212 16.0964 33.3833 16.2598 33.3604C16.4437 33.3346 16.6315 33.3346 17.0072 33.3346H33.0666C34.5601 33.3346 35.3068 33.3346 35.8773 33.044C36.379 32.7883 36.787 32.3804 37.0426 31.8786C37.3333 31.3082 37.3333 30.5614 37.3333 29.068V18.9346C37.3333 17.4412 37.3333 16.6944 37.0426 16.124C36.787 15.6222 36.379 15.2143 35.8773 14.9586C35.3068 14.668 34.5601 14.668 33.0666 14.668Z" fill="white"/>
</svg>
